<?xml version="1.0" standalone="no"?>
<!DOCTYPE svg PUBLIC "-//W3C//DTD SVG 20010904//EN"
 "http://www.w3.org/TR/2001/REC-SVG-20010904/DTD/svg10.dtd">
<svg version="1.0" xmlns="http://www.w3.org/2000/svg"
 width="700.000000pt" height="700.000000pt" viewBox="0 0 700.000000 700.000000"
 preserveAspectRatio="xMidYMid meet">
<metadata>
Created by potrace 1.11, written by Peter Selinger 2001-2013
</metadata>
<g transform="translate(0.000000,700.000000) scale(0.100000,-0.100000)"
fill="#000000" stroke="none">
<path d="M1955 6523 c-181 -37 -277 -117 -400 -329 -44 -76 -84 -146 -90 -155
-5 -9 -19 -32 -29 -50 -10 -19 -92 -160 -181 -314 -89 -154 -173 -300 -187
-325 -14 -25 -39 -67 -55 -95 -29 -48 -318 -549 -361 -627 -12 -20 -32 -55
-46 -77 -15 -22 -26 -43 -26 -45 0 -3 -19 -38 -43 -78 -59 -99 -103 -174 -257
-441 -128 -222 -174 -311 -187 -359 -12 -46 -8 -223 6 -273 13 -45 139 -269
467 -833 146 -251 244 -426 244 -433 0 -5 5 -9 10 -9 6 0 10 -4 10 -10 0 -5
27 -55 60 -111 33 -55 60 -102 60 -104 0 -2 27 -48 60 -104 33 -55 71 -122 85
-148 15 -26 35 -61 46 -78 10 -16 22 -36 26 -44 3 -8 35 -64 71 -125 35 -61
134 -232 220 -381 85 -148 169 -288 185 -310 66 -87 191 -165 298 -185 33 -7
601 -10 1568 -10 1651 0 1562 -3 1681 57 102 51 173 135 304 363 64 113 121
212 127 220 29 47 249 432 249 436 0 3 8 17 19 32 15 21 185 315 309 532 10
19 43 76 72 125 29 50 62 108 75 130 31 54 225 392 313 544 40 68 72 125 72
127 0 3 38 66 77 129 34 54 82 156 97 203 24 82 17 230 -15 308 -14 33 -130
242 -259 465 -128 222 -241 418 -250 434 -42 72 -173 300 -240 415 -177 307
-256 443 -276 478 -11 20 -53 93 -93 162 -40 69 -147 254 -239 412 -176 307
-212 353 -317 417 -31 19 -86 42 -123 52 -64 18 -135 19 -1592 18 -839 -1
-1534 -3 -1545 -6z"/>
</g>
</svg>
