<svg width="718" height="186" viewBox="0 0 718 186" fill="none" xmlns="http://www.w3.org/2000/svg">
<path d="M299.546 96.4096C297.97 93.6809 297.97 90.3191 299.546 87.5904L324.954 43.5821C326.53 40.8534 329.441 39.1725 332.592 39.1725H383.408C386.559 39.1725 389.47 40.8534 391.046 43.5821L416.454 87.5904C418.03 90.3191 418.03 93.6809 416.454 96.4096L391.046 140.418C389.47 143.147 386.559 144.828 383.408 144.828H332.592C329.441 144.828 326.53 143.147 324.954 140.418L299.546 96.4096Z" fill="white"/>
<path d="M347.403 117.476C349.06 117.476 350.403 116.133 350.403 114.476C350.403 112.819 349.06 111.476 347.403 111.476C345.746 111.476 344.403 112.819 344.403 114.476C344.403 116.133 345.746 117.476 347.403 117.476Z" fill="#133B51"/>
<path d="M322.048 85.5063C323.705 85.5063 325.048 84.1632 325.048 82.5063C325.048 80.8494 323.705 79.5063 322.048 79.5063C320.391 79.5063 319.048 80.8494 319.048 82.5063C319.048 84.1632 320.391 85.5063 322.048 85.5063Z" fill="#133B51"/>
<path d="M362.572 75.4214C363.677 75.4214 364.572 74.526 364.572 73.4214C364.572 72.3168 363.677 71.4214 362.572 71.4214C361.468 71.4214 360.572 72.3168 360.572 73.4214C360.572 74.526 361.468 75.4214 362.572 75.4214Z" fill="#133B51"/>
<path d="M372 75C373.105 75 374 74.1046 374 73C374 71.8954 373.105 71 372 71C370.895 71 370 71.8954 370 73C370 74.1046 370.895 75 372 75Z" fill="#133B51"/>
<path d="M374.331 85.3433C375.436 85.3433 376.331 84.4479 376.331 83.3433C376.331 82.2387 375.436 81.3433 374.331 81.3433C373.226 81.3433 372.331 82.2387 372.331 83.3433C372.331 84.4479 373.226 85.3433 374.331 85.3433Z" fill="#133B51"/>
<path d="M367.247 66.7646C368.904 66.7646 370.247 65.4215 370.247 63.7646C370.247 62.1077 368.904 60.7646 367.247 60.7646C365.59 60.7646 364.247 62.1077 364.247 63.7646C364.247 65.4215 365.59 66.7646 367.247 66.7646Z" fill="#133B51"/>
<path d="M383.048 77.7891C384.705 77.7891 386.048 76.4459 386.048 74.7891C386.048 73.1322 384.705 71.7891 383.048 71.7891C381.391 71.7891 380.048 73.1322 380.048 74.7891C380.048 76.4459 381.391 77.7891 383.048 77.7891Z" fill="#133B51"/>
<path d="M371.657 119.681C373.314 119.681 374.657 118.338 374.657 116.681C374.657 115.024 373.314 113.681 371.657 113.681C370 113.681 368.657 115.024 368.657 116.681C368.657 118.338 370 119.681 371.657 119.681Z" fill="#133B51"/>
<path d="M324.561 75.4087C324.561 75.4087 328.249 69.4829 331.683 66.7821C337.223 62.4244 341.823 61.8826 348.835 61.1647C355.454 60.4871 359.593 60.4424 365.788 62.87" stroke="#133B51" stroke-width="1.5"/>
<path d="M352.305 102.314C352.305 102.314 369.392 106.331 379.74 102.314C390.088 98.2967 391.305 94.0939 390.674 86.6658C390.042 79.2377 382.749 74.729 382.749 74.729" stroke="#133B51" stroke-width="1.5"/>
<path d="M332.829 96.5934C328.603 95.3072 326.489 97.0906 323.508 93.6889C321.328 91.2013 319.417 89.2249 320.016 85.9719C320.284 84.5213 321.623 82.5537 321.623 82.5537" stroke="#133B51" stroke-width="1.5"/>
<path d="M369.712 129.063C369.712 129.063 365.393 116.46 358.477 114.218C354.751 113.009 348.446 114.218 348.446 114.218" stroke="#133B51" stroke-width="1.5"/>
<path d="M370.953 116.801C370.953 116.801 378.688 118.321 382.116 115.671C384.905 113.515 382.857 108.923 386.14 107.593C387.545 107.024 388.601 107.716 390.027 107.2C393.298 106.015 394.501 103.409 395.173 100.001C395.69 97.3711 394.304 93.1403 394.304 93.1403" stroke="#133B51" stroke-width="1.5"/>
<path d="M334.665 100.452C334.665 100.452 337.029 109.482 341.91 108.642C346.792 107.801 372.331 72.1565 372.331 72.1565" stroke="#133B51" stroke-width="1.5"/>
<path d="M359.653 85.2017C359.653 85.2017 356.897 81.5271 359.653 79.5059C362.41 77.4848 362.409 73.8101 362.409 73.8101" stroke="#133B51" stroke-width="1.5"/>
<path d="M363.321 88.1964C363.321 88.1964 366.833 90.2342 368.339 87.1664C369.846 84.0986 373.464 83.4549 373.464 83.4549" stroke="#133B51" stroke-width="1.5"/>
<path d="M67.6208 119.8C77.0208 119.8 85.2208 114.7 89.7208 107.1L81.2208 103C78.0208 107.7 72.9208 110.8 67.6208 110.8C58.3208 110.8 51.3208 103.6 51.3208 94C51.3208 84.4 58.3208 77.2 67.6208 77.2C72.9208 77.2 78.0208 80.3 81.2208 85L89.7208 80.9C85.2208 73.3 77.0208 68.2 67.6208 68.2C53.3208 68.2 41.8208 79.8 41.8208 94C41.8208 108.2 53.3208 119.8 67.6208 119.8ZM124.786 119.8C137.786 119.8 144.086 113.5 144.086 105.2C144.086 88.9 112.986 90.5 112.986 82.8C112.986 78.8 117.186 76.6 123.186 76.6C131.586 76.6 137.686 82.7 137.686 82.7L143.986 77.1C143.986 77.1 136.486 68.2 123.286 68.2C110.386 68.2 104.086 74.5 104.086 82.8C104.086 99.1 135.186 97.5 135.186 105.2C135.186 109.2 130.986 111.4 124.986 111.4C116.586 111.4 110.486 105.3 110.486 105.3L104.186 110.8C104.186 110.8 111.686 119.8 124.786 119.8ZM178.368 119.8C191.368 119.8 197.668 113.5 197.668 105.2C197.668 88.9 166.568 90.5 166.568 82.8C166.568 78.8 170.768 76.6 176.768 76.6C185.168 76.6 191.268 82.7 191.268 82.7L197.568 77.1C197.568 77.1 190.068 68.2 176.868 68.2C163.968 68.2 157.668 74.5 157.668 82.8C157.668 99.1 188.768 97.5 188.768 105.2C188.768 109.2 184.568 111.4 178.568 111.4C170.168 111.4 164.068 105.3 164.068 105.3L157.768 110.8C157.768 110.8 165.268 119.8 178.368 119.8ZM252.589 69V74.5C248.089 70.6 242.189 68.2 235.689 68.2C221.389 68.2 209.889 79.8 209.889 94C209.889 108.2 221.389 119.8 235.689 119.8C242.189 119.8 248.089 117.4 252.589 113.5V119H262.089V69H252.589ZM235.889 110.8C226.689 110.8 219.589 103.6 219.589 94C219.589 84.4 226.689 77.2 235.889 77.2C245.189 77.2 252.189 84.4 252.189 94C252.189 103.6 245.189 110.8 235.889 110.8Z" fill="white"/>
<path d="M484.019 69V97.4C484.019 105.1 478.519 111 471.219 111C463.919 111 458.419 105.2 458.419 97.5V69H448.719V97.8C448.719 110.1 457.319 119.8 469.319 119.8C475.019 119.8 480.419 117.1 484.019 112.8V119H493.519V69H484.019ZM534.804 119.8C544.204 119.8 552.404 114.7 556.904 107.1L548.404 103C545.204 107.7 540.104 110.8 534.804 110.8C525.504 110.8 518.504 103.6 518.504 94C518.504 84.4 525.504 77.2 534.804 77.2C540.104 77.2 545.204 80.3 548.404 85L556.904 80.9C552.404 73.3 544.204 68.2 534.804 68.2C520.504 68.2 509.004 79.8 509.004 94C509.004 108.2 520.504 119.8 534.804 119.8ZM591.969 119.8C604.969 119.8 611.269 113.5 611.269 105.2C611.269 88.9 580.169 90.5 580.169 82.8C580.169 78.8 584.369 76.6 590.369 76.6C598.769 76.6 604.869 82.7 604.869 82.7L611.169 77.1C611.169 77.1 603.669 68.2 590.469 68.2C577.569 68.2 571.269 74.5 571.269 82.8C571.269 99.1 602.369 97.5 602.369 105.2C602.369 109.2 598.169 111.4 592.169 111.4C583.769 111.4 577.669 105.3 577.669 105.3L571.369 110.8C571.369 110.8 578.869 119.8 591.969 119.8ZM666.19 44.5V74.5C661.69 70.6 655.79 68.2 649.29 68.2C634.99 68.2 623.49 79.8 623.49 94C623.49 108.2 634.99 119.8 649.29 119.8C655.79 119.8 661.69 117.4 666.19 113.5V119H675.69V44.5H666.19ZM649.49 110.8C640.19 110.8 633.19 103.6 633.19 94C633.19 84.4 640.19 77.2 649.49 77.2C658.79 77.2 665.79 84.4 665.79 94C665.79 103.6 658.79 110.8 649.49 110.8Z" fill="white"/>
</svg>