<svg width="178" height="173" viewBox="0 0 178 173" fill="none" xmlns="http://www.w3.org/2000/svg">
<path d="M25.5752 82.5754L53.6389 33.9679C55.041 31.5393 57.6322 30.0433 60.4364 30.0433L116.564 30.0433C119.368 30.0433 121.959 31.5393 123.361 33.9679L151.425 82.5754C152.827 85.004 152.827 87.996 151.425 90.4246L123.361 139.032C121.959 141.461 119.368 142.957 116.564 142.957L60.4364 142.957C57.6322 142.957 55.041 141.461 53.6389 139.032L25.5752 90.4246C24.1731 87.996 24.1731 85.004 25.5752 82.5754Z" stroke="#133B51" stroke-width="4"/>
<circle cx="79.5" cy="109.5" r="3.5" fill="#133B51"/>
<circle cx="49.3686" cy="73.4242" r="3.5" fill="#133B51"/>
<circle cx="90.5" cy="67.5" r="3.5" fill="#133B51"/>
<circle cx="103.5" cy="66.5" r="3.5" fill="#133B51"/>
<circle cx="107.275" cy="79.6081" r="3.5" fill="#133B51"/>
<circle cx="99.5" cy="54.5" r="3.5" fill="#133B51"/>
<circle cx="115.5" cy="65.5" r="3.5" fill="#133B51"/>
<circle cx="105.355" cy="114.42" r="3.5" fill="#133B51"/>
<path d="M51.7786 67.3485C51.7786 67.3485 53.6028 62.3675 59.7322 57.7145C65.8615 53.0616 70.8196 51.1546 78.7384 50.3616C86.2432 49.6101 90.9028 50.3388 97.8198 53.3456" stroke="#133B51" stroke-width="4"/>
<path d="M89.5385 97.3952C89.5385 97.3952 105.072 100.629 113.401 97.3952C121.731 94.1615 126.317 88.2153 125.612 79.9197C124.906 71.6242 116.762 66.5891 116.762 66.5891" stroke="#133B51" stroke-width="4"/>
<path d="M62 93C60.5 87.5 53.4321 91.562 50.1027 87.7631C47.6679 84.985 46.0344 82.7778 46.7037 79.145C47.0022 77.525 48.5 75 48.5 75" stroke="#133B51" stroke-width="4"/>
<path d="M100.356 126.287C100.356 126.287 95.5335 112.212 87.8097 109.708C83.6482 108.359 80 109.708 80 109.708" stroke="#133B51" stroke-width="4"/>
<path d="M104.5 114C104.5 114 112.227 115.271 116.055 112.312C119.17 109.904 116.883 104.775 120.549 103.291C122.118 102.655 123.298 103.428 124.891 102.851C128.543 101.528 129.887 98.6178 130.637 94.8119C131.215 91.8749 133 87 133 87" stroke="#133B51" stroke-width="4"/>
<path d="M63.5769 97.5077C63.5769 97.5077 65.7031 105.4 71.1547 104.462C76.6064 103.523 102.5 67.5 102.5 67.5" stroke="#133B51" stroke-width="4"/>
<path d="M87.1118 81.3893C87.1118 81.3893 84.0339 77.2856 87.112 75.0284C90.1901 72.7713 90.1899 68.6675 90.1899 68.6675" stroke="#133B51" stroke-width="4"/>
<path d="M94 86.1539C94 86.1539 97.1347 87.6912 98.8175 84.2652C100.5 80.8392 104.541 80.1203 104.541 80.1203" stroke="#133B51" stroke-width="4"/>
</svg>
