<svg width="658" height="141" viewBox="0 0 658 141" fill="none" xmlns="http://www.w3.org/2000/svg">
<path d="M36.6209 99.8C46.0209 99.8 54.2209 94.7 58.7209 87.1L50.2209 83C47.0209 87.7 41.9209 90.8 36.6209 90.8C27.3209 90.8 20.3209 83.6 20.3209 74C20.3209 64.4 27.3209 57.2 36.6209 57.2C41.9209 57.2 47.0209 60.3 50.2209 65L58.7209 60.9C54.2209 53.3 46.0209 48.2 36.6209 48.2C22.3209 48.2 10.8209 59.8 10.8209 74C10.8209 88.2 22.3209 99.8 36.6209 99.8ZM93.7864 99.8C106.786 99.8 113.086 93.5 113.086 85.2C113.086 68.9 81.9864 70.5 81.9864 62.8C81.9864 58.8 86.1864 56.6 92.1864 56.6C100.586 56.6 106.686 62.7 106.686 62.7L112.986 57.1C112.986 57.1 105.486 48.2 92.2864 48.2C79.3864 48.2 73.0864 54.5 73.0864 62.8C73.0864 79.1 104.186 77.5 104.186 85.2C104.186 89.2 99.9864 91.4 93.9864 91.4C85.5864 91.4 79.4864 85.3 79.4864 85.3L73.1864 90.8C73.1864 90.8 80.6864 99.8 93.7864 99.8ZM147.368 99.8C160.368 99.8 166.668 93.5 166.668 85.2C166.668 68.9 135.568 70.5 135.568 62.8C135.568 58.8 139.768 56.6 145.768 56.6C154.168 56.6 160.268 62.7 160.268 62.7L166.568 57.1C166.568 57.1 159.068 48.2 145.868 48.2C132.968 48.2 126.668 54.5 126.668 62.8C126.668 79.1 157.768 77.5 157.768 85.2C157.768 89.2 153.568 91.4 147.568 91.4C139.168 91.4 133.068 85.3 133.068 85.3L126.768 90.8C126.768 90.8 134.268 99.8 147.368 99.8ZM221.589 49V54.5C217.089 50.6 211.189 48.2 204.689 48.2C190.389 48.2 178.889 59.8 178.889 74C178.889 88.2 190.389 99.8 204.689 99.8C211.189 99.8 217.089 97.4 221.589 93.5V99H231.089V49H221.589ZM204.889 90.8C195.689 90.8 188.589 83.6 188.589 74C188.589 64.4 195.689 57.2 204.889 57.2C214.189 57.2 221.189 64.4 221.189 74C221.189 83.6 214.189 90.8 204.889 90.8Z" fill="white"/>
<path d="M453.019 49V77.4C453.019 85.1 447.519 91 440.219 91C432.919 91 427.419 85.2 427.419 77.5V49H417.719V77.8C417.719 90.1 426.319 99.8 438.319 99.8C444.019 99.8 449.419 97.1 453.019 92.8V99H462.519V49H453.019ZM503.804 99.8C513.204 99.8 521.404 94.7 525.904 87.1L517.404 83C514.204 87.7 509.104 90.8 503.804 90.8C494.504 90.8 487.504 83.6 487.504 74C487.504 64.4 494.504 57.2 503.804 57.2C509.104 57.2 514.204 60.3 517.404 65L525.904 60.9C521.404 53.3 513.204 48.2 503.804 48.2C489.504 48.2 478.004 59.8 478.004 74C478.004 88.2 489.504 99.8 503.804 99.8ZM560.969 99.8C573.969 99.8 580.269 93.5 580.269 85.2C580.269 68.9 549.169 70.5 549.169 62.8C549.169 58.8 553.369 56.6 559.369 56.6C567.769 56.6 573.869 62.7 573.869 62.7L580.169 57.1C580.169 57.1 572.669 48.2 559.469 48.2C546.569 48.2 540.269 54.5 540.269 62.8C540.269 79.1 571.369 77.5 571.369 85.2C571.369 89.2 567.169 91.4 561.169 91.4C552.769 91.4 546.669 85.3 546.669 85.3L540.369 90.8C540.369 90.8 547.869 99.8 560.969 99.8ZM635.19 24.5V54.5C630.69 50.6 624.79 48.2 618.29 48.2C603.99 48.2 592.49 59.8 592.49 74C592.49 88.2 603.99 99.8 618.29 99.8C624.79 99.8 630.69 97.4 635.19 93.5V99H644.69V24.5H635.19ZM618.49 90.8C609.19 90.8 602.19 83.6 602.19 74C602.19 64.4 609.19 57.2 618.49 57.2C627.79 57.2 634.79 64.4 634.79 74C634.79 83.6 627.79 90.8 618.49 90.8Z" fill="white"/>
<path d="M263.575 66.5754L291.639 17.9679C293.041 15.5393 295.632 14.0433 298.436 14.0433L354.564 14.0433C357.368 14.0433 359.959 15.5393 361.361 17.9679L389.425 66.5754C390.827 69.004 390.827 71.996 389.425 74.4246L361.361 123.032C359.959 125.461 357.368 126.957 354.564 126.957L298.436 126.957C295.632 126.957 293.041 125.461 291.639 123.032L263.575 74.4246C262.173 71.996 262.173 69.004 263.575 66.5754Z" stroke="white" stroke-width="4"/>
<circle cx="317.5" cy="93.5" r="3.5" fill="white"/>
<circle cx="287.369" cy="57.4242" r="3.5" fill="white"/>
<circle cx="328.5" cy="51.5" r="3.5" fill="white"/>
<circle cx="341.5" cy="50.5" r="3.5" fill="white"/>
<circle cx="345.275" cy="63.6081" r="3.5" fill="white"/>
<circle cx="337.5" cy="38.5" r="3.5" fill="white"/>
<circle cx="353.5" cy="49.5" r="3.5" fill="white"/>
<circle cx="343.355" cy="98.4199" r="3.5" fill="white"/>
<path d="M289.779 51.3485C289.779 51.3485 291.603 46.3675 297.732 41.7145C303.862 37.0616 308.82 35.1546 316.738 34.3616C324.243 33.6101 328.903 34.3388 335.82 37.3456" stroke="white" stroke-width="4"/>
<path d="M327.538 81.3952C327.538 81.3952 343.072 84.629 351.401 81.3952C359.731 78.1615 364.317 72.2153 363.612 63.9197C362.906 55.6242 354.762 50.5891 354.762 50.5891" stroke="white" stroke-width="4"/>
<path d="M300 77C298.5 71.5 291.432 75.562 288.103 71.7631C285.668 68.985 284.034 66.7779 284.704 63.145C285.002 61.525 286.498 59.3276 286.498 59.3276" stroke="white" stroke-width="4"/>
<path d="M338.356 110.287C338.356 110.287 333.533 96.212 325.81 93.7078C321.648 92.3585 318 93 318 93" stroke="white" stroke-width="4"/>
<path d="M341.588 97.5738C341.588 97.5738 350.227 99.2713 354.055 96.312C357.17 93.9038 354.883 88.7753 358.549 87.2907C360.118 86.6554 361.298 87.4281 362.891 86.8513C366.543 85.5285 367.887 82.6178 368.637 78.8119C369.215 75.8749 371 71 371 71" stroke="white" stroke-width="4"/>
<path d="M301.577 81.5077C301.577 81.5077 303.703 89.4004 309.155 88.4617C314.606 87.523 340.5 51.5 340.5 51.5" stroke="white" stroke-width="4"/>
<path d="M325.112 65.3893C325.112 65.3893 322.034 61.2856 325.112 59.0284C328.19 56.7713 328.19 52.6675 328.19 52.6675" stroke="white" stroke-width="4"/>
<path d="M332 70.1539C332 70.1539 335.135 71.6912 336.818 68.2652C338.5 64.8392 342.541 64.1203 342.541 64.1203" stroke="white" stroke-width="4"/>
<path d="M36.6209 99.8C46.0209 99.8 54.2209 94.7 58.7209 87.1L50.2209 83C47.0209 87.7 41.9209 90.8 36.6209 90.8C27.3209 90.8 20.3209 83.6 20.3209 74C20.3209 64.4 27.3209 57.2 36.6209 57.2C41.9209 57.2 47.0209 60.3 50.2209 65L58.7209 60.9C54.2209 53.3 46.0209 48.2 36.6209 48.2C22.3209 48.2 10.8209 59.8 10.8209 74C10.8209 88.2 22.3209 99.8 36.6209 99.8ZM93.7864 99.8C106.786 99.8 113.086 93.5 113.086 85.2C113.086 68.9 81.9864 70.5 81.9864 62.8C81.9864 58.8 86.1864 56.6 92.1864 56.6C100.586 56.6 106.686 62.7 106.686 62.7L112.986 57.1C112.986 57.1 105.486 48.2 92.2864 48.2C79.3864 48.2 73.0864 54.5 73.0864 62.8C73.0864 79.1 104.186 77.5 104.186 85.2C104.186 89.2 99.9864 91.4 93.9864 91.4C85.5864 91.4 79.4864 85.3 79.4864 85.3L73.1864 90.8C73.1864 90.8 80.6864 99.8 93.7864 99.8ZM147.368 99.8C160.368 99.8 166.668 93.5 166.668 85.2C166.668 68.9 135.568 70.5 135.568 62.8C135.568 58.8 139.768 56.6 145.768 56.6C154.168 56.6 160.268 62.7 160.268 62.7L166.568 57.1C166.568 57.1 159.068 48.2 145.868 48.2C132.968 48.2 126.668 54.5 126.668 62.8C126.668 79.1 157.768 77.5 157.768 85.2C157.768 89.2 153.568 91.4 147.568 91.4C139.168 91.4 133.068 85.3 133.068 85.3L126.768 90.8C126.768 90.8 134.268 99.8 147.368 99.8ZM221.589 49V54.5C217.089 50.6 211.189 48.2 204.689 48.2C190.389 48.2 178.889 59.8 178.889 74C178.889 88.2 190.389 99.8 204.689 99.8C211.189 99.8 217.089 97.4 221.589 93.5V99H231.089V49H221.589ZM204.889 90.8C195.689 90.8 188.589 83.6 188.589 74C188.589 64.4 195.689 57.2 204.889 57.2C214.189 57.2 221.189 64.4 221.189 74C221.189 83.6 214.189 90.8 204.889 90.8Z" fill="#133B51"/>
<path d="M453.019 49V77.4C453.019 85.1 447.519 91 440.219 91C432.919 91 427.419 85.2 427.419 77.5V49H417.719V77.8C417.719 90.1 426.319 99.8 438.319 99.8C444.019 99.8 449.419 97.1 453.019 92.8V99H462.519V49H453.019ZM503.804 99.8C513.204 99.8 521.404 94.7 525.904 87.1L517.404 83C514.204 87.7 509.104 90.8 503.804 90.8C494.504 90.8 487.504 83.6 487.504 74C487.504 64.4 494.504 57.2 503.804 57.2C509.104 57.2 514.204 60.3 517.404 65L525.904 60.9C521.404 53.3 513.204 48.2 503.804 48.2C489.504 48.2 478.004 59.8 478.004 74C478.004 88.2 489.504 99.8 503.804 99.8ZM560.969 99.8C573.969 99.8 580.269 93.5 580.269 85.2C580.269 68.9 549.169 70.5 549.169 62.8C549.169 58.8 553.369 56.6 559.369 56.6C567.769 56.6 573.869 62.7 573.869 62.7L580.169 57.1C580.169 57.1 572.669 48.2 559.469 48.2C546.569 48.2 540.269 54.5 540.269 62.8C540.269 79.1 571.369 77.5 571.369 85.2C571.369 89.2 567.169 91.4 561.169 91.4C552.769 91.4 546.669 85.3 546.669 85.3L540.369 90.8C540.369 90.8 547.869 99.8 560.969 99.8ZM635.19 24.5V54.5C630.69 50.6 624.79 48.2 618.29 48.2C603.99 48.2 592.49 59.8 592.49 74C592.49 88.2 603.99 99.8 618.29 99.8C624.79 99.8 630.69 97.4 635.19 93.5V99H644.69V24.5H635.19ZM618.49 90.8C609.19 90.8 602.19 83.6 602.19 74C602.19 64.4 609.19 57.2 618.49 57.2C627.79 57.2 634.79 64.4 634.79 74C634.79 83.6 627.79 90.8 618.49 90.8Z" fill="#133B51"/>
<path d="M263.575 66.5754L291.639 17.9679C293.041 15.5393 295.632 14.0433 298.436 14.0433L354.564 14.0433C357.368 14.0433 359.959 15.5393 361.361 17.9679L389.425 66.5754C390.827 69.004 390.827 71.996 389.425 74.4246L361.361 123.032C359.959 125.461 357.368 126.957 354.564 126.957L298.436 126.957C295.632 126.957 293.041 125.461 291.639 123.032L263.575 74.4246C262.173 71.996 262.173 69.004 263.575 66.5754Z" stroke="#133B51" stroke-width="4"/>
<circle cx="317.5" cy="93.5" r="3.5" fill="#133B51"/>
<circle cx="287.369" cy="57.4242" r="3.5" fill="#133B51"/>
<circle cx="328.5" cy="51.5" r="3.5" fill="#133B51"/>
<circle cx="341.5" cy="50.5" r="3.5" fill="#133B51"/>
<circle cx="345.275" cy="63.6081" r="3.5" fill="#133B51"/>
<circle cx="337.5" cy="38.5" r="3.5" fill="#133B51"/>
<circle cx="353.5" cy="49.5" r="3.5" fill="#133B51"/>
<circle cx="343.355" cy="98.4199" r="3.5" fill="#133B51"/>
<path d="M289.779 51.3485C289.779 51.3485 291.603 46.3675 297.732 41.7145C303.862 37.0616 308.82 35.1546 316.738 34.3616C324.243 33.6101 328.903 34.3388 335.82 37.3456" stroke="#133B51" stroke-width="4"/>
<path d="M327.538 81.3952C327.538 81.3952 343.072 84.629 351.401 81.3952C359.731 78.1615 364.317 72.2153 363.612 63.9197C362.906 55.6242 354.762 50.5891 354.762 50.5891" stroke="#133B51" stroke-width="4"/>
<path d="M300 77C298.5 71.5 291.432 75.562 288.103 71.7631C285.668 68.985 284.034 66.7779 284.704 63.145C285.002 61.525 286.498 59.3276 286.498 59.3276" stroke="#133B51" stroke-width="4"/>
<path d="M338.356 110.287C338.356 110.287 333.533 96.212 325.81 93.7078C321.648 92.3585 318 93 318 93" stroke="#133B51" stroke-width="4"/>
<path d="M341.588 97.5738C341.588 97.5738 350.227 99.2713 354.055 96.312C357.17 93.9038 354.883 88.7753 358.549 87.2907C360.118 86.6554 361.298 87.4281 362.891 86.8513C366.543 85.5285 367.887 82.6178 368.637 78.8119C369.215 75.8749 371 71 371 71" stroke="#133B51" stroke-width="4"/>
<path d="M301.577 81.5077C301.577 81.5077 303.703 89.4004 309.155 88.4617C314.606 87.523 340.5 51.5 340.5 51.5" stroke="#133B51" stroke-width="4"/>
<path d="M325.112 65.3893C325.112 65.3893 322.034 61.2856 325.112 59.0284C328.19 56.7713 328.19 52.6675 328.19 52.6675" stroke="#133B51" stroke-width="4"/>
<path d="M332 70.1539C332 70.1539 335.135 71.6912 336.818 68.2652C338.5 64.8392 342.541 64.1203 342.541 64.1203" stroke="#133B51" stroke-width="4"/>
</svg>
