<?xml version="1.0" standalone="no"?>
<!DOCTYPE svg PUBLIC "-//W3C//DTD SVG 20010904//EN"
 "http://www.w3.org/TR/2001/REC-SVG-20010904/DTD/svg10.dtd">
<svg version="1.0" xmlns="http://www.w3.org/2000/svg"
 width="712.000000pt" height="712.000000pt" viewBox="0 0 712.000000 712.000000"
 preserveAspectRatio="xMidYMid meet">
<metadata>
Created by potrace 1.11, written by Peter Selinger 2001-2013
</metadata>
<g transform="translate(0.000000,712.000000) scale(0.100000,-0.100000)"
fill="#000000" stroke="none">
<path d="M2364 5894 c-79 -20 -129 -40 -174 -69 -30 -19 -52 -35 -48 -35 3 0
-6 -13 -21 -29 -15 -16 -48 -66 -75 -112 -27 -46 -57 -96 -67 -111 -11 -15
-19 -30 -19 -34 0 -3 -20 -40 -45 -80 -24 -41 -41 -74 -37 -74 4 0 2 -4 -5 -8
-13 -8 -69 -104 -79 -134 -4 -10 -10 -18 -15 -18 -5 0 -9 -5 -9 -11 0 -6 -29
-60 -65 -120 -36 -61 -65 -112 -65 -114 0 -3 -45 -80 -91 -155 -5 -8 -15 -26
-21 -40 -7 -14 -18 -31 -25 -38 -7 -8 -11 -17 -8 -22 3 -5 2 -10 -3 -12 -4 -1
-39 -57 -77 -123 -39 -66 -75 -129 -82 -140 -7 -11 -15 -27 -19 -35 -6 -12
-54 -95 -104 -180 -5 -8 -37 -64 -71 -125 -34 -60 -67 -113 -73 -117 -6 -4 -7
-8 -3 -8 5 0 0 -12 -11 -27 -10 -16 -22 -35 -25 -43 -4 -8 -15 -28 -25 -45
-79 -130 -105 -207 -97 -295 8 -104 12 -113 165 -376 66 -114 120 -211 120
-216 0 -4 5 -8 10 -8 6 0 10 -4 10 -9 0 -9 33 -68 314 -555 69 -120 126 -222
126 -227 0 -5 5 -9 10 -9 6 0 10 -4 10 -9 0 -5 23 -49 51 -98 29 -48 62 -106
74 -128 56 -99 236 -411 245 -425 5 -8 17 -30 27 -49 41 -82 150 -164 263
-199 25 -7 2351 -8 2400 -1 50 8 150 48 150 61 0 4 5 8 12 8 21 0 96 87 134
157 21 38 42 69 46 71 4 2 8 12 8 22 0 10 3 20 8 22 4 2 31 44 59 93 28 50
108 188 177 308 69 120 126 221 126 225 0 3 6 13 14 21 8 9 26 39 40 66 15 28
31 57 36 65 31 48 100 172 100 177 0 4 6 14 14 22 7 9 27 41 44 71 52 95 97
174 125 217 15 24 27 45 27 48 0 2 20 39 45 81 25 41 45 80 45 85 0 5 4 9 9 9
5 0 11 8 14 18 3 9 20 40 36 67 17 28 34 57 38 65 3 8 16 31 28 50 46 74 93
167 100 200 12 49 13 180 3 180 -5 0 -7 4 -3 10 5 8 -37 107 -65 150 -19 31
-90 152 -90 155 0 1 -52 91 -115 200 -63 108 -115 199 -115 200 0 3 -59 104
-90 155 -5 8 -35 60 -66 115 -31 55 -63 107 -70 115 -7 8 -14 20 -15 25 -1 6
-7 19 -14 30 -50 83 -75 126 -75 131 0 3 -8 18 -19 32 -10 15 -31 50 -45 77
-15 28 -36 64 -46 80 -10 17 -25 41 -33 55 -7 14 -24 43 -37 65 -12 22 -34 60
-48 85 -14 25 -36 62 -49 82 -12 21 -23 42 -23 48 0 5 -4 10 -10 10 -5 0 -10
4 -10 9 0 5 -23 49 -51 98 -28 48 -61 104 -73 125 -40 69 -112 136 -176 164
-14 7 -38 17 -55 25 -24 10 -260 13 -1216 14 -653 0 -1191 0 -1195 -1z"/>
</g>
</svg>
