<svg width="1440" height="880" viewBox="0 0 1440 880" fill="none" xmlns="http://www.w3.org/2000/svg">
<g clip-path="url(#clip0)">
<circle opacity="0.5" cx="1264.11" cy="747.115" r="30" transform="rotate(-0.220059 1264.11 747.115)" fill="#FD643D"/>
<circle opacity="0.5" cx="1006.08" cy="284.026" r="30" transform="rotate(-0.220059 1006.08 284.026)" fill="#133B51"/>
<circle opacity="0.5" cx="889.582" cy="822.066" r="30" transform="rotate(89.4167 889.582 822.066)" fill="#FEC44A"/>
<circle opacity="0.5" cx="303.115" cy="65.115" r="30" transform="rotate(-0.220059 303.115 65.115)" fill="#133B51"/>
<circle opacity="0.5" cx="654.115" cy="198.115" r="30" transform="rotate(-0.220059 654.115 198.115)" fill="#92F9F3"/>
<circle opacity="0.5" cx="1321.3" cy="79.8139" r="30" transform="rotate(-0.220059 1321.3 79.8139)" fill="#92F9F3"/>
<circle opacity="0.5" cx="1344.44" cy="636.729" r="30" transform="rotate(-0.220059 1344.44 636.729)" fill="#92F9F3"/>
<path class="path" d="M1381.5 368.784L1100.54 368.784C1077.53 368.784 1063.09 393.615 1074.46 413.614L1110.71 477.349" stroke="#133B51" stroke-width="15" stroke-linecap="round" stroke-linejoin="round"/>
<path class="path" d="M1294.34 514.182L1192.96 657.7" stroke="#FEC44A" stroke-width="15" stroke-linecap="round" stroke-linejoin="round"/>
<path class="path" d="M947.554 150.906L869.523 270.161C862.896 280.29 863.005 293.409 869.798 303.426L1016 519" stroke="#FD643D" stroke-width="15" stroke-linecap="round" stroke-linejoin="round"/>
<path class="path" d="M820.97 -5.26511L878.3 69.5016C884.002 76.938 892.851 81.2828 902.222 81.2468L1314.04 79.6651" stroke="#92F9F3" stroke-width="15" stroke-linecap="round" stroke-linejoin="round"/>
<path class="path" d="M1012.5 285.698L1239.06 285.698" stroke="#133B51" stroke-width="15" stroke-linecap="round" stroke-linejoin="round"/>
<path class="path" d="M1053 269.87L1279.56 269.87" stroke="#FEC44A" stroke-width="5" stroke-linecap="round" stroke-linejoin="round"/>
<path class="path" d="M994.17 192.108L1274.66 191.03C1284.84 190.991 1294.34 196.116 1299.9 204.642L1348.36 278.948" stroke="#133B51" stroke-width="15" stroke-linecap="round" stroke-linejoin="round"/>
<path class="path" d="M1372.57 149.618L1535.5 391.994" stroke="#133B51" stroke-width="15" stroke-linecap="round" stroke-linejoin="round"/>
<circle cx="1110.85" cy="484.423" r="21.1258" transform="rotate(-0.220059 1110.85 484.423)" fill="#133B51"/>
<circle cx="1192.15" cy="658.251" r="21.1258" transform="rotate(-0.220059 1192.15 658.251)" fill="#FEC44A"/>
<circle cx="1021.21" cy="527.207" r="21.1258" transform="rotate(-0.220059 1021.21 527.207)" fill="#FD643D"/>
<path class="path" d="M1341.82 636.531L1443.36 487.024C1452.77 473.179 1448.94 454.307 1434.89 445.218V445.218C1430.03 442.077 1424.36 440.416 1418.57 440.438L1262.68 441.037" stroke="#92F9F3" stroke-width="15" stroke-linecap="round" stroke-linejoin="round"/>
<circle cx="1345.12" cy="635.995" r="21.1258" transform="rotate(119.243 1345.12 635.995)" fill="#92F9F3"/>
<circle cx="1321.6" cy="79.9386" r="21.1258" transform="rotate(-0.220059 1321.6 79.9386)" fill="#92F9F3"/>
<circle cx="1348.21" cy="284.207" r="21.1258" transform="rotate(-0.220059 1348.21 284.207)" fill="#133B51"/>
<circle cx="1005.95" cy="283.826" r="21.1258" transform="rotate(-0.220059 1005.95 283.826)" fill="#133B51"/>
<circle cx="372.207" cy="349.207" r="21.1258" transform="rotate(-0.220059 372.207 349.207)" fill="#133B51"/>
<circle cx="884.207" cy="695.207" r="21.1258" transform="rotate(-0.220059 884.207 695.207)" fill="#133B51"/>
<path class="path" d="M1115.72 554.926L1116.35 719.81C1116.42 736.378 1129.9 749.758 1146.47 749.694L1261.9 749.251" stroke="#FD643D" stroke-width="15" stroke-linecap="round" stroke-linejoin="round"/>
<circle cx="1263.84" cy="746.751" r="21.1258" transform="rotate(-0.220059 1263.84 746.751)" fill="#FD643D"/>
<circle r="21.1258" transform="matrix(-0.999993 -0.00384075 -0.00384075 0.999993 482.793 684.707)" fill="#133B51"/>
<path class="path" d="M1355.88 348.996L1126.06 349.879C1102.58 349.969 1087.89 375.329 1099.5 395.744L1135.27 458.646" stroke="#FD643D" stroke-width="5" stroke-linecap="round" stroke-linejoin="round"/>
<path class="path" d="M1293.05 465.925L1191.67 609.443" stroke="#92F9F3" stroke-width="5" stroke-linecap="round" stroke-linejoin="round"/>
<path class="path" d="M937.971 126.287L868.878 233.209C862.233 243.491 862.335 256.738 869.135 266.917L1017.5 489" stroke="#92F9F3" stroke-width="5" stroke-linecap="round" stroke-linejoin="round"/>
<path class="path" d="M779.886 -27.1075L837.007 47.3866C842.84 54.9948 851.894 59.4399 861.481 59.4031L1272.96 57.8227" stroke="#FD643D" stroke-width="5" stroke-linecap="round" stroke-linejoin="round"/>
<path class="path" d="M1008.64 168.941L1237.49 169.411C1247.65 169.432 1257.14 174.48 1262.84 182.893L1312.63 256.413" stroke="#92F9F3" stroke-width="5" stroke-linecap="round" stroke-linejoin="round"/>
<path class="path" d="M1336.5 138.756L1501.44 383.124" stroke="#FEC44A" stroke-width="5" stroke-linecap="round" stroke-linejoin="round"/>
<path class="path" d="M1305.75 618.492L1407.29 468.986C1416.7 455.14 1412.87 436.268 1398.82 427.18V427.18C1393.96 424.038 1388.29 422.377 1382.51 422.4L1226.61 422.998" stroke="#133B51" stroke-width="5" stroke-linecap="round" stroke-linejoin="round"/>
<path class="path" d="M1084.03 524.833L1084.66 689.024C1084.72 705.975 1098.52 719.664 1115.47 719.599L1230.21 719.158" stroke="#92F9F3" stroke-width="5" stroke-linecap="round" stroke-linejoin="round"/>
<path class="path" d="M720 2.6228L825.292 130.358C833.751 140.62 834.444 155.227 826.994 166.244L753.932 274.291C747.087 284.414 747.066 297.677 753.879 307.821L909.061 538.901" stroke="#FEC44A" stroke-width="15"/>
<path class="path" d="M712 -70.2818L817.292 57.4532C825.751 67.7156 826.444 82.3226 818.994 93.3398L745.932 201.387C739.087 211.509 739.066 224.772 745.879 234.917L901.061 465.996" stroke="#133B51" stroke-width="5"/>
<path class="path" d="M750 134H246.349C236.711 134 227.659 129.369 222.02 121.552L130 -6" stroke="#FD643D" stroke-width="15"/>
<path class="path" d="M661 105H157.349C147.711 105 138.659 100.369 133.02 92.552L41 -35" stroke="#92F9F3" stroke-width="5"/>
<path class="path" d="M137 183.5V654.5C137 671.069 150.431 684.5 167 684.5H483" stroke="#133B51" stroke-width="15"/>
<path class="path" d="M169 266.5V689C169 705.569 182.431 719 199 719H440" stroke="#FEC44A" stroke-width="5"/>
<path class="path" d="M303 68H598.744C625.304 68 638.763 36.0309 620.201 17.0339L606 2.5" stroke="#133B51" stroke-width="15"/>
<path class="path" d="M653.5 198L343.726 494.025C324.64 512.264 293 498.736 293 472.336V218.5" stroke="#92F9F3" stroke-width="15"/>
<path class="path" d="M596 207L304.275 500.426C285.401 519.41 253 506.044 253 479.275V227.53" stroke="#133B51" stroke-width="5"/>
<path class="path" d="M372 345.5V237C372 220.431 385.431 207 402 207H519.5" stroke="#133B51" stroke-width="15"/>
<path class="path" d="M399 315.5V207C399 190.431 412.431 177 429 177H546.5" stroke="#FEC44A" stroke-width="5"/>
<path class="path" d="M1284.66 814.446L1100.42 815.614C1093.47 815.658 1086.71 813.283 1081.31 808.893L1006.74 748.272C995.409 739.061 979.092 739.346 968.09 748.946L890.165 816.947" stroke="#FEC44A" stroke-width="15"/>
<path class="path" d="M1197.53 793.998L1036.82 795.017C1029.24 795.065 1021.91 792.238 1016.33 787.105L955.284 730.996C943.506 720.17 925.306 720.491 913.916 731.724L848.533 796.211" stroke="#133B51" stroke-width="5"/>
<path class="path" d="M651 343L563.99 430.325C545.144 449.24 558.541 481.5 585.242 481.5H719.263C729.118 481.5 738.344 486.34 743.945 494.447L887 701.5" stroke="#133B51" stroke-width="15"/>
<path class="path" d="M614 337.5L546.65 401.801C527.075 420.49 540.303 453.5 567.366 453.5H663.263C673.118 453.5 682.344 458.34 687.945 466.447L831 673.5" stroke="#FD643D" stroke-width="5"/>
<circle cx="889.781" cy="821.93" r="21.1258" transform="rotate(89.4167 889.781 821.93)" fill="#FEC44A"/>
<circle cx="653.98" cy="197.915" r="21.1258" transform="rotate(-0.220059 653.98 197.915)" fill="#92F9F3"/>
<circle cx="302.98" cy="64.9154" r="21.1258" transform="rotate(-0.220059 302.98 64.9154)" fill="#133B51"/>
<path d="M337 42H603.645C629.459 42 643.22 11.5629 626.168 -7.81709L611.929 -24" stroke="#FD643D" stroke-width="5"/>
</g>
<defs>
<clipPath id="clip0">
<rect width="1440" height="880" fill="white"/>
</clipPath>
</defs>
</svg>