<svg width="654" height="130" viewBox="0 0 654 130" fill="none" xmlns="http://www.w3.org/2000/svg">
<path d="M268.546 73.4096C266.97 70.6809 266.97 67.3191 268.546 64.5904L293.954 20.5821C295.53 17.8534 298.441 16.1725 301.592 16.1725L352.408 16.1725C355.559 16.1725 358.47 17.8534 360.046 20.5821L385.454 64.5904C387.03 67.3191 387.03 70.6809 385.454 73.4096L360.046 117.418C358.47 120.147 355.559 121.828 352.408 121.828L301.592 121.828C298.441 121.828 295.53 120.147 293.954 117.418L268.546 73.4096Z" fill="#133B51"/>
<circle cx="316.403" cy="91.476" r="3" fill="white"/>
<circle cx="291.048" cy="59.5062" r="3" fill="white"/>
<circle cx="331.572" cy="50.4215" r="2" fill="white"/>
<circle cx="304" cy="78" r="2" fill="white"/>
<circle cx="343.331" cy="60.3434" r="2" fill="white"/>
<circle cx="336.247" cy="40.7649" r="3" fill="white"/>
<circle cx="352.048" cy="51.7893" r="3" fill="white"/>
<circle cx="340.657" cy="93.6806" r="3" fill="white"/>
<path d="M293.56 52.4089C293.56 52.4089 297.249 46.4831 300.682 43.7823C306.223 39.4246 310.823 38.8828 317.835 38.165C324.454 37.4874 328.592 37.4426 334.787 39.8702" stroke="white" stroke-width="1.5"/>
<path d="M321.305 79.314C321.305 79.314 338.392 83.3313 348.74 79.314C359.088 75.2966 360.305 71.0939 359.673 63.6657C359.042 56.2376 351.749 51.7289 351.749 51.7289" stroke="white" stroke-width="1.5"/>
<path d="M301.829 73.5935C297.603 72.3073 295.489 74.0907 292.507 70.6889C290.327 68.2014 288.417 66.225 289.016 62.972C289.283 61.5214 290.623 59.5538 290.623 59.5538" stroke="white" stroke-width="1.5"/>
<path d="M338.712 106.063C338.712 106.063 334.393 93.4599 327.477 91.2175C323.751 90.0094 317.446 91.2175 317.446 91.2175" stroke="white" stroke-width="1.5"/>
<path d="M339.953 93.8009C339.953 93.8009 347.688 95.3209 351.116 92.671C353.905 90.5146 351.858 85.9224 355.14 84.593C356.545 84.0242 357.601 84.716 359.028 84.1996C362.298 83.015 363.502 80.4087 364.173 77.0008C364.691 74.3708 363.304 70.1401 363.304 70.1401" stroke="white" stroke-width="1.5"/>
<path d="M303.665 77.4516C303.665 77.4516 306.029 86.482 310.91 85.6415C315.792 84.801 341.331 49.1564 341.331 49.1564" stroke="white" stroke-width="1.5"/>
<path d="M328.653 62.2016C328.653 62.2016 325.897 58.5271 328.653 56.5059C331.41 54.4848 331.409 50.8101 331.409 50.8101" stroke="white" stroke-width="1.5"/>
<path d="M332.321 65.1965C332.321 65.1965 335.833 67.2344 337.34 64.1666C338.847 61.0988 342.464 60.455 342.464 60.455" stroke="white" stroke-width="1.5"/>
<path d="M36.6209 96.8C46.0209 96.8 54.2209 91.7 58.7209 84.1L50.2209 80C47.0209 84.7 41.9209 87.8 36.6209 87.8C27.3209 87.8 20.3209 80.6 20.3209 71C20.3209 61.4 27.3209 54.2 36.6209 54.2C41.9209 54.2 47.0209 57.3 50.2209 62L58.7209 57.9C54.2209 50.3 46.0209 45.2 36.6209 45.2C22.3209 45.2 10.8209 56.8 10.8209 71C10.8209 85.2 22.3209 96.8 36.6209 96.8ZM93.7864 96.8C106.786 96.8 113.086 90.5 113.086 82.2C113.086 65.9 81.9864 67.5 81.9864 59.8C81.9864 55.8 86.1864 53.6 92.1864 53.6C100.586 53.6 106.686 59.7 106.686 59.7L112.986 54.1C112.986 54.1 105.486 45.2 92.2864 45.2C79.3864 45.2 73.0864 51.5 73.0864 59.8C73.0864 76.1 104.186 74.5 104.186 82.2C104.186 86.2 99.9864 88.4 93.9864 88.4C85.5864 88.4 79.4864 82.3 79.4864 82.3L73.1864 87.8C73.1864 87.8 80.6864 96.8 93.7864 96.8ZM147.368 96.8C160.368 96.8 166.668 90.5 166.668 82.2C166.668 65.9 135.568 67.5 135.568 59.8C135.568 55.8 139.768 53.6 145.768 53.6C154.168 53.6 160.268 59.7 160.268 59.7L166.568 54.1C166.568 54.1 159.068 45.2 145.868 45.2C132.968 45.2 126.668 51.5 126.668 59.8C126.668 76.1 157.768 74.5 157.768 82.2C157.768 86.2 153.568 88.4 147.568 88.4C139.168 88.4 133.068 82.3 133.068 82.3L126.768 87.8C126.768 87.8 134.268 96.8 147.368 96.8ZM221.589 46V51.5C217.089 47.6 211.189 45.2 204.689 45.2C190.389 45.2 178.889 56.8 178.889 71C178.889 85.2 190.389 96.8 204.689 96.8C211.189 96.8 217.089 94.4 221.589 90.5V96H231.089V46H221.589ZM204.889 87.8C195.689 87.8 188.589 80.6 188.589 71C188.589 61.4 195.689 54.2 204.889 54.2C214.189 54.2 221.189 61.4 221.189 71C221.189 80.6 214.189 87.8 204.889 87.8Z" fill="#133B51"/>
<path d="M453.019 46V74.4C453.019 82.1 447.519 88 440.219 88C432.919 88 427.419 82.2 427.419 74.5V46H417.719V74.8C417.719 87.1 426.319 96.8 438.319 96.8C444.019 96.8 449.419 94.1 453.019 89.8V96H462.519V46H453.019ZM503.804 96.8C513.204 96.8 521.404 91.7 525.904 84.1L517.404 80C514.204 84.7 509.104 87.8 503.804 87.8C494.504 87.8 487.504 80.6 487.504 71C487.504 61.4 494.504 54.2 503.804 54.2C509.104 54.2 514.204 57.3 517.404 62L525.904 57.9C521.404 50.3 513.204 45.2 503.804 45.2C489.504 45.2 478.004 56.8 478.004 71C478.004 85.2 489.504 96.8 503.804 96.8ZM560.969 96.8C573.969 96.8 580.269 90.5 580.269 82.2C580.269 65.9 549.169 67.5 549.169 59.8C549.169 55.8 553.369 53.6 559.369 53.6C567.769 53.6 573.869 59.7 573.869 59.7L580.169 54.1C580.169 54.1 572.669 45.2 559.469 45.2C546.569 45.2 540.269 51.5 540.269 59.8C540.269 76.1 571.369 74.5 571.369 82.2C571.369 86.2 567.169 88.4 561.169 88.4C552.769 88.4 546.669 82.3 546.669 82.3L540.369 87.8C540.369 87.8 547.869 96.8 560.969 96.8ZM635.19 21.5V51.5C630.69 47.6 624.79 45.2 618.29 45.2C603.99 45.2 592.49 56.8 592.49 71C592.49 85.2 603.99 96.8 618.29 96.8C624.79 96.8 630.69 94.4 635.19 90.5V96H644.69V21.5H635.19ZM618.49 87.8C609.19 87.8 602.19 80.6 602.19 71C602.19 61.4 609.19 54.2 618.49 54.2C627.79 54.2 634.79 61.4 634.79 71C634.79 80.6 627.79 87.8 618.49 87.8Z" fill="#133B51"/>
</svg>
